<svg width="250" height="250" viewBox="0 0 160 184" xmlns="http://www.w3.org/2000/svg">
  <g fill="#D6336C" fill-rule="nonzero">
    <path d="M79.998 21.6L1.898 67.5v93l78.1 45.9 78.1-45.9v-93L79.998 21.6zm0 11.603l68.7 40.502v82.79l-68.7 40.503-68.7-40.502v-82.79L79.998 33.203z"/>
    <path d="M79.998 44.805L21.298 78.607v65.603l58.7 34.402 58.7-34.402V78.607L79.998 44.805zm0 11.603l49.3 28.902v54.002l-49.3 28.902-49.3-28.902V85.31l49.3-28.902z"/>
    <path d="M79.998 68.01l-39.9 23.4v42.4l39.9 23.4 39.9-23.4v-42.4l-39.9-23.4z"/>
  </g>
</svg>